<svg width="16" height="22" viewBox="0 0 16 22" fill="none" xmlns="http://www.w3.org/2000/svg">
<path d="M11.9533 15.5818C12.3154 15.2084 12.1266 15.3137 12.9999 15.0726C13.3962 14.9631 13.7445 14.7525 14.0595 14.5003L15.9499 19.28C16.1328 19.7428 15.7912 20.2455 15.307 20.2266L13.1116 20.1403L11.6016 21.7851C11.2683 22.1477 10.6833 22.0347 10.5004 21.5719L8.33166 16.0884C8.78333 16.3479 9.28457 16.5 9.8029 16.5C10.6154 16.5 11.3787 16.1739 11.9533 15.5818ZM0.0500813 19.28L1.94048 14.5003C2.25548 14.7529 2.6038 14.9631 3.00005 15.0726C3.87796 15.315 3.68546 15.2093 4.04671 15.5818C4.62128 16.1739 5.38503 16.5 6.19752 16.5C6.71585 16.5 7.21709 16.3475 7.66875 16.0884L5.50003 21.5719C5.31711 22.0347 4.7317 22.1477 4.39879 21.7851L2.88839 20.1403L0.692991 20.2266C0.20883 20.2455 -0.132833 19.7424 0.0500813 19.28ZM5.0417 14.6094C4.40504 13.9413 4.33212 13.9989 3.42546 13.7441C2.84672 13.5812 2.39422 13.1064 2.23922 12.4988C1.92756 11.2786 2.00839 11.4259 1.15799 10.5331C0.734241 10.0883 0.568826 9.43996 0.723824 8.8324C1.03507 7.61297 1.03549 7.78312 0.723824 6.5624C0.568826 5.95484 0.734241 5.30645 1.15799 4.86173C2.00839 3.96886 1.92756 4.11581 2.23922 2.89595C2.39422 2.28839 2.84672 1.81359 3.42546 1.65074C4.58712 1.32376 4.44712 1.40926 5.29836 0.515961C5.72211 0.0712435 6.34002 -0.102776 6.91876 0.0600718C8.08 0.386628 7.91792 0.387057 9.08124 0.0600718C9.65998 -0.102776 10.2779 0.0708138 10.7016 0.515961C11.552 1.40883 11.412 1.32376 12.5741 1.65074C13.1529 1.81359 13.6054 2.28839 13.7604 2.89595C14.0716 4.11581 13.9912 3.96886 14.8416 4.86173C15.2653 5.30645 15.4312 5.95484 15.2758 6.5624C14.9645 7.78097 14.9641 7.61082 15.2758 8.83197C15.4308 9.43953 15.2653 10.0879 14.8416 10.5331C13.9912 11.4259 14.072 11.2786 13.7604 12.4988C13.6054 13.1064 13.1529 13.5812 12.5741 13.7441C11.6416 14.0062 11.572 13.9649 10.9583 14.6094C10.4071 15.1882 9.54832 15.2918 8.88582 14.8595C8.6209 14.6861 8.31359 14.594 7.99979 14.594C7.68599 14.594 7.37868 14.6861 7.11376 14.8595C6.45168 15.2918 5.59294 15.1882 5.0417 14.6094ZM11.9308 7.56098C11.9308 5.28239 10.1708 3.4352 8 3.4352C5.82919 3.4352 4.06921 5.28239 4.06921 7.56098C4.06921 9.83956 5.82919 11.6868 8 11.6868C10.1708 11.6868 11.9308 9.83956 11.9308 7.56098Z" fill="white"/>
</svg>
