<?xml version="1.0" encoding="utf-8"?>
<!-- Generator: Adobe Illustrator 27.6.1, SVG Export Plug-In . SVG Version: 6.00 Build 0)  -->
<svg version="1.1" id="Layer_1" xmlns="http://www.w3.org/2000/svg" x="0px" y="0px"
	 viewBox="0 0 551.2 119.6" style="enable-background:new 0 0 551.2 119.6;" xml:space="preserve">
<style type="text/css">
	.st0{fill:#0B63FF;}
	.st1{fill:#FFFFFF;}
	.st2{fill:#000B28;}
	.st3{fill:none;}
	.st4{font-family:'Gilroy-SemiBold';}
	.st5{font-size:17.0813px;}
</style>
<g id="Layer_2_00000088131942957174409700000002987254327540824967_">
	<g id="logo_versions">
		<g id="Sourcery_logo_blue_with_black_text_horizontal_">
			<g id="sourcery_logo_with_blue_back">
				<circle id="logoback" class="st0" cx="59.8" cy="59.8" r="59.8"/>
				<path id="sourcery_logo" class="st1" d="M81.2,41.7c-2.9-11.8-14.8-19-26.6-16.1c-8,1.9-14.2,8.2-16.1,16.1
					c-11.6,3.6-18,16-14.4,27.6c3.4,10.8,14.5,17.3,25.6,14.9c1.7,0.4,3.5,0.6,5.2,0.6c1.1,0,2.2-0.1,3.3-0.2v14.1h3.3V84.6
					c1.1,0.2,2.2,0.3,3.3,0.2c1.8,0,3.5-0.2,5.3-0.6c11.9,2.6,23.6-4.9,26.2-16.8C98.6,56.3,92.1,45.1,81.2,41.7L81.2,41.7z
					 M76,56.2c-2.2,3.8-5.6,6.6-9.6,8.2c0-0.5,0-1,0-1.5c0-4.8-1.5-9.4-4.4-13.2c3.5-3.5,8.2-5.5,13.2-5.5c1.1,0,2.1,0.1,3.1,0.3
					C78.9,48.5,78.1,52.7,76,56.2z M41.3,44.5c1-0.2,2.1-0.3,3.2-0.3c5,0,9.7,2,13.2,5.5c-2.9,3.8-4.4,8.4-4.4,13.2c0,0.5,0,1,0,1.5
					c-1-0.4-1.9-0.8-2.8-1.3C43.9,59.3,40.3,52,41.3,44.5z M63,65.3c-0.1,1.2-0.4,2.3-0.8,3.4c-0.6,1.7-1.3,3.3-2.4,4.7
					c-1.7-2.4-2.8-5.2-3.1-8.2c-0.1-0.8-0.2-1.6-0.2-2.4c0-3.8,1.1-7.5,3.2-10.6c2.2,3.1,3.3,6.8,3.3,10.6
					C63.1,63.7,63.1,64.5,63,65.3z M43.6,37.5c5.2-8.9,16.6-12,25.5-6.8c4,2.3,7,6,8.4,10.3c-0.8-0.1-1.6-0.1-2.4-0.1
					c-5.8,0-11.3,2.3-15.4,6.3c-4.1-4-9.6-6.3-15.4-6.3c-0.8,0-1.6,0-2.4,0.1C42.5,39.8,43,38.7,43.6,37.5z M25.7,62.9
					c0-7.8,4.8-14.8,12.1-17.5c-0.4,6,1.7,11.9,5.7,16.3c-3.6-0.7-7.2-0.5-10.7,0.6c-0.2,7.8,3.7,15.1,10.3,19.2
					C33.4,80.9,25.8,72.7,25.7,62.9z M56.1,81.5c-0.4,0-0.8,0-1.2,0c-3.2,0-6.4-0.8-9.2-2.4c-5.2-3-8.7-8.3-9.4-14.3
					c1.1-0.2,2.1-0.3,3.2-0.3c7.8,0,14.8,4.8,17.5,12.1c0.4,1.1,0.7,2.3,0.9,3.5c0.1,0.3,0.1,0.7,0.2,1.1
					C57.4,81.4,56.7,81.5,56.1,81.5z M64.7,81.5h-1.2c-0.7,0-1.3-0.1-2-0.2c0-0.3,0.1-0.7,0.1-1.1c0.2-1.2,0.5-2.4,1-3.5
					c2.7-7.3,9.7-12.1,17.5-12.1c1.1,0,2.1,0.1,3.2,0.3c-0.8,7.5-6.1,13.8-13.3,16C68.3,81.3,66.5,81.6,64.7,81.5L64.7,81.5z
					 M76.4,81.5c6.6-4.1,10.5-11.4,10.3-19.2c-3.5-1.1-7.1-1.3-10.7-0.6c1.1-1.2,2-2.5,2.8-3.8c2.2-3.8,3.2-8.1,2.9-12.5
					c9.7,3.6,14.6,14.4,11,24C90.1,76.3,83.8,81.1,76.4,81.5L76.4,81.5z"/>
			</g>
			<g id="SOURCERY">
				<path class="st2" d="M188.3,48.2l-5.6,3.2c-1.7-3.7-4.5-5.6-8.4-5.6s-6.3,2-6.3,5c-0.1,1.4,0.6,2.7,1.8,3.5
					c2,1.2,4.1,2.1,6.3,2.7c1.5,0.5,2.6,0.9,3.4,1.1s1.7,0.7,3,1.2c1,0.4,2,0.9,2.9,1.6c2.1,1.7,4.4,4.4,4.1,8.2
					c0.1,3.3-1.3,6.5-3.9,8.6c-3,2.3-6.6,3.4-10.3,3.3c-7.7,0-13.4-3.7-15.5-9.9l5.7-3.3c1.6,4.5,4.9,6.8,10,6.8s7.4-2.1,7.4-5.3
					c0.1-1.5-0.7-3-2-3.8c-2.2-1.2-4.6-2.2-7.1-2.8c-1.6-0.5-3.1-1-4.6-1.6c-1.3-0.6-2.6-1.3-3.8-2.1c-2.6-1.8-4-4.4-4-8
					c-0.1-3.3,1.3-6.4,3.8-8.5c2.6-2.1,5.8-3.2,9.1-3.1C180.3,39.2,185.8,42.7,188.3,48.2z"/>
				<path class="st2" d="M248.8,60.2c0.1,11.4-9.1,20.7-20.5,20.8c-0.1,0-0.2,0-0.3,0c-11.5,0-20.8-9.2-20.8-20.7c0,0,0-0.1,0-0.1
					c0-11.5,9.3-20.8,20.8-20.8C239.5,39.4,248.8,48.7,248.8,60.2C248.8,60.2,248.8,60.2,248.8,60.2L248.8,60.2z M217.9,70.4
					c2.6,2.7,6.3,4.2,10.1,4.1c3.8,0.1,7.5-1.4,10.1-4.1c2.7-2.7,4.2-6.4,4.1-10.3c0.1-3.8-1.4-7.6-4.1-10.3
					c-2.7-2.7-6.3-4.2-10.1-4.1c-3.8-0.1-7.4,1.4-10.1,4.1c-2.7,2.7-4.2,6.5-4.1,10.3C213.7,64,215.1,67.7,217.9,70.4z"/>
				<path class="st2" d="M292.2,66.6V40.1h6.6V67c0.2,3.9-1.4,7.6-4.2,10.2c-2.8,2.6-6.5,3.8-11,3.8s-8.1-1.3-11-3.8
					c-2.9-2.6-4.4-6.3-4.2-10.2V40.1h6.6v26.4c0,4.9,2.9,8,8.6,8S292.2,71.4,292.2,66.6z"/>
				<path class="st2" d="M327.3,80.2h-6.6V40.1h16c7-0.1,12.8,5.5,12.9,12.6c0,0.1,0,0.2,0,0.3c0,2.5-0.7,4.9-2.2,7
					c-1.4,2.1-3.5,3.7-5.8,4.7l9.1,15.6h-7.2l-8.5-14.6h-7.8L327.3,80.2z M336.7,59.7c1.7,0,3.3-0.7,4.5-2c2.5-2.7,2.5-6.8,0-9.5
					c-1.1-1.3-2.8-2-4.5-2h-9.5v13.4H336.7z"/>
				<path class="st2" d="M378.5,70.5c2.7,2.8,6.5,4.2,10.4,4.1c4.7,0.1,9.2-2.3,11.5-6.5l5.7,3.3c-1.7,2.9-4.1,5.4-7.1,7
					c-9.9,5.7-22.6,2.4-28.3-7.5c-1.9-3.2-2.8-6.9-2.8-10.6c0.1-11.6,9.7-20.9,21.3-20.7c3.4,0,6.8,0.9,9.8,2.6c3,1.7,5.4,4.1,7.2,7
					l-5.7,3.3c-2.3-4.1-6.8-6.6-11.5-6.5c-7.6-0.3-14.1,5.6-14.4,13.2c0,0.4,0,0.8,0,1.1C374.3,64.1,375.8,67.8,378.5,70.5z"/>
				<path class="st2" d="M451.4,40.1v6.3h-18.9v10.4h16v6.2h-16v10.8h19.2v6.3h-25.8V40.1H451.4z"/>
				<path class="st2" d="M478.6,80.2H472V40.1h16c7-0.1,12.8,5.5,12.9,12.5c0,0.1,0,0.2,0,0.4c0,2.5-0.7,4.9-2.2,7
					c-1.4,2.1-3.5,3.7-5.8,4.7l9.1,15.6h-7.2l-8.5-14.6h-7.8V80.2z M488.1,59.7c1.7,0,3.3-0.7,4.5-2c2.5-2.7,2.5-6.8,0-9.5
					c-1.1-1.3-2.8-2-4.5-2h-9.5v13.4H488.1z"/>
				<path class="st2" d="M543.7,40.1h7.5l-14,24.2v15.9h-6.6V64.3l-14-24.2h7.5l9.8,17.8L543.7,40.1z"/>
			</g>
		</g>
	</g>
</g>
<g>
	<rect x="91.3" y="85.8" width="33.9" height="25.6"/>
	<circle cx="91.3" cy="98.6" r="12.8"/>
	<circle cx="125.2" cy="98.6" r="12.8"/>
	<rect x="82.1" y="92.4" class="st3" width="52.2" height="29.5"/>
	<text transform="matrix(1 0 0 1 88.3115 104.4049)" class="st1 st4 st5">BETA</text>
</g>
</svg>
