<svg width="26.867201" height="40.741852" viewBox="0 0 26.867201 40.741852" fill="none" xmlns="http://www.w3.org/2000/svg">
    <path d="M32.3302 0.000274658C50.1859 0.000274658 64.6604 14.4974 64.6604 32.381C64.6604 50.2646 50.1859 64.7617 32.3302 64.7617C14.4745 64.7617 0 50.2646 0 32.381C0 14.4974 14.4745 0.000274658 32.3302 0.000274658Z" fill="#0B63FF"/>
    <path d="M41.3049 44.1308C44.8731 41.9107 46.9816 37.9579 46.8735 33.7343C44.9812 33.1387 43.0349 33.0304 41.0886 33.4094C41.6833 32.7597 42.1699 32.0557 42.6024 31.3518C43.7918 29.2942 44.3325 26.9658 44.1703 24.5833C49.4145 26.5326 52.0636 32.3806 50.1173 37.5789C48.7117 41.3151 45.3056 43.9142 41.3049 44.1308ZM34.9794 44.1308H34.3307C33.9522 44.1308 33.6278 44.0767 33.2494 44.0225C33.2494 43.8601 33.3034 43.6435 33.3034 43.4269C33.4116 42.7771 33.5738 42.1273 33.8441 41.5317C35.3038 37.5789 39.0883 34.9797 43.3053 34.9797C43.9 34.9797 44.4406 35.0339 45.0353 35.1422C44.6028 39.2033 41.7374 42.6147 37.8448 43.8059C36.9257 44.0225 35.9526 44.185 34.9794 44.1308ZM30.3299 44.1308H29.6812C27.9511 44.1308 26.2211 43.6976 24.7073 42.8313C21.896 41.2068 20.0037 38.3369 19.6253 35.088C20.22 34.9797 20.7606 34.9256 21.3553 34.9256C25.5723 34.9256 29.3568 37.5247 30.8165 41.4775C31.0328 42.0732 31.195 42.723 31.3031 43.3727C31.3572 43.5352 31.3572 43.7518 31.4112 43.9684C31.0328 44.0767 30.6543 44.1308 30.3299 44.1308ZM13.8945 34.0592C13.8945 29.8356 16.4896 26.0453 20.4363 24.5833C20.22 27.8322 21.3553 31.0269 23.5179 33.4094C21.5716 33.0304 19.6253 33.1387 17.7331 33.7343C17.6249 37.9579 19.7334 41.9107 23.3016 44.1308C18.0574 43.8059 13.9486 39.3658 13.8945 34.0592ZM23.572 20.3055C26.3833 15.4863 32.5466 13.8077 37.3582 16.6234C39.5208 17.8689 41.1427 19.8723 41.8996 22.2007C41.4671 22.1466 41.0346 22.1466 40.6021 22.1466C37.4664 22.1466 34.4929 23.392 32.2762 25.5579C30.0596 23.392 27.0861 22.1466 23.9504 22.1466C23.5179 22.1466 23.0854 22.1466 22.6529 22.2007C22.9773 21.5509 23.2476 20.9553 23.572 20.3055ZM34.0603 35.3588C34.0063 36.0086 33.8441 36.6042 33.6278 37.1998C33.3035 38.1203 32.925 38.9867 32.3303 39.7448C31.4112 38.4452 30.8165 36.9291 30.6543 35.3046C30.6003 34.8714 30.5462 34.4383 30.5462 34.0051C30.5462 31.9474 31.1409 29.9439 32.2762 28.2653C33.4656 29.9439 34.0603 31.9474 34.0603 34.0051C34.1144 34.4924 34.1144 34.9256 34.0603 35.3588ZM22.3285 24.0959C22.8691 23.9876 23.4638 23.9335 24.0585 23.9335C26.7617 23.9335 29.3027 25.0164 31.195 26.9116C29.6271 28.9693 28.8162 31.4601 28.8162 34.0592V34.8714C28.2755 34.6549 27.7889 34.4383 27.3024 34.1675C23.7341 32.1099 21.7878 28.157 22.3285 24.0959ZM41.0886 30.4313C39.8992 32.4889 38.0611 34.0051 35.8985 34.8714V34.0592C35.8985 31.4601 35.0876 28.9693 33.5197 26.9116C35.4119 25.0164 37.9529 23.9335 40.6561 23.9335C41.2508 23.9335 41.7915 23.9876 42.3321 24.0959C42.6565 26.2619 42.224 28.5361 41.0886 30.4313ZM43.9 22.5798C42.3321 16.1903 35.8985 12.2916 29.519 13.8619C25.1939 14.8907 21.8419 18.302 20.8147 22.5798C14.5433 24.5291 11.0832 31.2435 13.0295 37.5247C14.8677 43.3727 20.8688 46.8924 26.8699 45.5928C27.7889 45.8094 28.7621 45.9177 29.6812 45.9177C30.2759 45.9177 30.8706 45.8636 31.4653 45.8094V53.4443H33.2494V45.8094C33.8441 45.9177 34.4388 45.9719 35.0335 45.9177C36.0066 45.9177 36.9257 45.8094 37.8989 45.5928C44.3325 47.0007 50.658 42.9396 52.0636 36.4959C53.3071 30.4854 49.7929 24.4208 43.9 22.5798Z" fill="white"/>
</svg>