<svg width="34" height="34" viewBox="0 0 34 34" fill="none" xmlns="http://www.w3.org/2000/svg">
<g clip-path="url(#clip0_1460_2132)">
<path d="M24.6848 31.7442C24.6886 31.7442 24.6924 31.7442 24.6957 31.7442C24.8457 31.7442 24.9674 31.6224 24.9674 31.4724C24.9674 31.442 24.9625 31.4132 24.9533 31.3859C24.7979 29.2932 19.0669 26.6754 12.5701 26.5769V17.6112H24.5288H24.8005C24.9506 17.6112 25.0723 17.4895 25.0723 17.3395V9.18583C25.0723 9.03582 24.9505 8.91406 24.8005 8.91406H11.2113C11.0612 8.91406 10.9395 9.03582 10.9395 9.18583V9.45761V26.6232C4.66062 26.9977 0 29.4688 0 31.4724C0 31.6225 0.121761 31.7442 0.271773 31.7442H24.6848ZM15.7892 12.051C15.7327 11.9738 15.7273 11.8711 15.7751 11.7885C15.8224 11.7064 15.9136 11.658 16.0094 11.6694L17.3368 11.8135L17.8755 10.591C17.9527 10.4165 18.2392 10.4165 18.3163 10.591L18.8551 11.8135L20.183 11.6694C20.2803 11.6586 20.37 11.7059 20.4173 11.7885C20.4651 11.8711 20.4597 11.9738 20.4032 12.051L19.6139 13.1284L20.4032 14.2058C20.4597 14.283 20.4651 14.3857 20.4173 14.4683C20.37 14.5509 20.2792 14.5998 20.183 14.5874L18.8551 14.4427L18.3163 15.6653C18.2777 15.7528 18.1913 15.8088 18.0962 15.8088C18.0011 15.8088 17.9147 15.7522 17.8761 15.6653L17.3374 14.4427L16.0099 14.5874C15.9148 14.6004 15.8229 14.5515 15.7756 14.4683C15.7278 14.3857 15.7332 14.283 15.7898 14.2058L16.5785 13.1284L15.7892 12.051Z" fill="black"/>
<path d="M6.35326 6.09391L7.39857 6.35648L7.77528 7.36643C7.82308 7.49473 7.93995 7.58494 8.07587 7.59853C8.08781 7.59961 8.10031 7.60017 8.11231 7.60017C8.23515 7.60017 8.35094 7.53713 8.41722 7.43163L8.99015 6.51792L10.067 6.47227C10.2034 6.4663 10.3251 6.38314 10.3806 6.25808C10.436 6.13302 10.4148 5.98682 10.3273 5.88188L9.63591 5.05514L9.92507 4.01637C9.96151 3.88426 9.92018 3.74352 9.81855 3.65217C9.71634 3.56139 9.57179 3.53586 9.44457 3.5864L8.44439 3.98863L7.54642 3.3929C7.43279 3.31735 7.28494 3.31298 7.16698 3.38147C7.04852 3.44997 6.97945 3.58043 6.98872 3.71686L7.06211 4.79258L6.21785 5.46283C6.11076 5.54764 6.0613 5.68679 6.09012 5.82049C6.11843 5.95533 6.22058 6.06077 6.35326 6.09391Z" fill="black"/>
<path d="M29.9516 16.2893L31.0138 16.4654L31.4649 17.4303C31.522 17.5547 31.6449 17.6113 31.7818 17.6113C31.7851 17.6113 31.7883 17.6113 31.7916 17.6113C31.9248 17.6113 32.0477 17.5656 32.1096 17.4477L32.6125 16.5225L33.6827 16.3958C33.8186 16.3795 33.9339 16.2876 33.9796 16.1588C34.0252 16.03 33.9937 15.8859 33.8986 15.7876L33.1467 15.0151L33.3571 13.9584C33.3838 13.8242 33.3322 13.6861 33.2234 13.6029C33.1147 13.5198 32.9673 13.505 32.8456 13.5654L31.8785 14.0416L30.9382 13.5149C30.8186 13.4475 30.6717 13.4545 30.5587 13.5323C30.4457 13.61 30.3869 13.7442 30.4065 13.8796L30.5603 14.9461L29.7689 15.6772C29.6683 15.7702 29.6291 15.9104 29.6683 16.042C29.7065 16.1718 29.8168 16.2664 29.9516 16.2893Z" fill="black"/>
<path d="M20.588 20.7767C20.5554 20.6435 20.4505 20.5402 20.3168 20.5109L19.6015 20.3505L19.328 19.6705C19.2769 19.5438 19.1584 19.4563 19.0219 19.446C18.8801 19.4324 18.7545 19.5036 18.6849 19.6216L18.3115 20.2522L17.5804 20.3021C17.444 20.3114 17.3244 20.3973 17.2722 20.5239C17.22 20.6506 17.2445 20.7957 17.3347 20.8984L17.8191 21.4486L17.6408 22.1596C17.6071 22.2922 17.6521 22.4324 17.7565 22.521C17.8609 22.6101 18.0066 22.6313 18.1321 22.5775L18.8051 22.2867L19.4259 22.6759C19.484 22.7124 19.5503 22.7308 19.6172 22.7308C19.6824 22.7308 19.7482 22.7129 19.8058 22.6776C19.9221 22.6058 19.9879 22.4737 19.9753 22.3378L19.9069 21.6083L20.469 21.1382C20.5743 21.05 20.6206 20.9098 20.588 20.7767Z" fill="black"/>
<path d="M23.888 4.30701L24.5588 4.60164L24.6963 5.32134C24.7219 5.45618 24.8219 5.56429 24.954 5.60079C24.9855 5.60949 25.0181 5.61381 25.0497 5.61381C25.1508 5.61381 25.2486 5.57083 25.3182 5.49369L25.8058 4.94685L26.5331 5.03814C26.6706 5.05719 26.8033 4.99415 26.8783 4.87943C26.9538 4.76529 26.9576 4.61795 26.8886 4.5L26.5189 3.8667L26.831 3.20355C26.8891 3.07963 26.8723 2.93343 26.787 2.82633C26.7016 2.71924 26.5625 2.66978 26.4293 2.69911L25.7128 2.85515L25.179 2.35344C25.079 2.25942 24.9344 2.2306 24.8067 2.27898C24.6784 2.32678 24.5887 2.44366 24.5751 2.58008L24.5017 3.30957L23.8592 3.66285C23.7391 3.72862 23.6668 3.85692 23.6733 3.99391C23.6798 4.13085 23.7624 4.2521 23.888 4.30701Z" fill="black"/>
</g>
<defs>
<clipPath id="clip0_1460_2132">
<rect width="34" height="34" fill="white"/>
</clipPath>
</defs>
</svg>
