<svg width="75" height="65" viewBox="0 0 75 65" fill="none" xmlns="http://www.w3.org/2000/svg">
<rect width="74.9288" height="65" rx="15" fill="white"/>
<path d="M35 41.25H38.75V45H35V41.25ZM37.5 20C44.1875 20.275 47.1 27.025 43.125 32.0875C42.0875 33.3375 40.4125 34.1625 39.5875 35.2125C38.75 36.25 38.75 37.5 38.75 38.75H35C35 36.6625 35 34.9 35.8375 33.65C36.6625 32.4 38.3375 31.6625 39.375 30.8375C42.4 28.0375 41.65 24.075 37.5 23.75C36.5054 23.75 35.5516 24.1451 34.8483 24.8483C34.1451 25.5516 33.75 26.5054 33.75 27.5H30C30 25.5109 30.7902 23.6032 32.1967 22.1967C33.6032 20.7902 35.5109 20 37.5 20Z" fill="black"/>
</svg>
