<svg width="74" height="65" viewBox="0 0 74 65" fill="none" xmlns="http://www.w3.org/2000/svg">
<rect width="72.5791" height="64.8814" rx="15" transform="matrix(-1 0 0 1 73.4241 0)" fill="white"/>
<path d="M50.9041 19.7632H46.1499V18.1785C46.1499 17.7582 45.9829 17.3551 45.6857 17.0579C45.3885 16.7607 44.9854 16.5938 44.5651 16.5938H28.7177C28.2974 16.5938 27.8943 16.7607 27.5971 17.0579C27.2999 17.3551 27.1329 17.7582 27.1329 18.1785V19.7632H22.3787C21.9584 19.7632 21.5553 19.9302 21.2581 20.2274C20.9609 20.5246 20.7939 20.9277 20.7939 21.348V26.1022C20.7939 27.7834 21.4618 29.3958 22.6506 30.5846C23.8394 31.7734 25.4517 32.4412 27.1329 32.4412H29.5734C31.0069 34.0404 32.9395 35.1073 35.0567 35.4681V38.7802H33.4719C32.211 38.7802 31.0018 39.2811 30.1102 40.1727C29.2186 41.0643 28.7177 42.2735 28.7177 43.5344V46.7039C28.7177 47.1242 28.8846 47.5273 29.1818 47.8245C29.479 48.1217 29.8821 48.2887 30.3024 48.2887H42.9804C43.4007 48.2887 43.8038 48.1217 44.101 47.8245C44.3982 47.5273 44.5651 47.1242 44.5651 46.7039V43.5344C44.5651 42.2735 44.0642 41.0643 43.1726 40.1727C42.2811 39.2811 41.0718 38.7802 39.8109 38.7802H38.2261V35.4681C40.3433 35.1073 42.2759 34.0404 43.7094 32.4412H46.1499C47.8311 32.4412 49.4434 31.7734 50.6322 30.5846C51.821 29.3958 52.4889 27.7834 52.4889 26.1022V21.348C52.4889 20.9277 52.3219 20.5246 52.0247 20.2274C51.7275 19.9302 51.3244 19.7632 50.9041 19.7632V19.7632ZM27.1329 29.2717C26.2923 29.2717 25.4862 28.9378 24.8918 28.3434C24.2974 27.749 23.9634 26.9428 23.9634 26.1022V22.9327H27.1329V26.1022C27.1364 27.1826 27.324 28.2544 27.6876 29.2717H27.1329ZM39.8109 41.9497C40.2312 41.9497 40.6343 42.1166 40.9315 42.4138C41.2287 42.711 41.3956 43.1141 41.3956 43.5344V45.1192H31.8872V43.5344C31.8872 43.1141 32.0541 42.711 32.3513 42.4138C32.6485 42.1166 33.0516 41.9497 33.4719 41.9497H39.8109ZM42.9804 26.1022C42.9804 27.7834 42.3125 29.3958 41.1237 30.5846C39.935 31.7734 38.3226 32.4412 36.6414 32.4412C34.9602 32.4412 33.3479 31.7734 32.1591 30.5846C30.9703 29.3958 30.3024 27.7834 30.3024 26.1022V19.7632H42.9804V26.1022ZM49.3194 26.1022C49.3194 26.9428 48.9854 27.749 48.391 28.3434C47.7967 28.9378 46.9905 29.2717 46.1499 29.2717H45.5952C45.9588 28.2544 46.1464 27.1826 46.1499 26.1022V22.9327H49.3194V26.1022Z" fill="black"/>
</svg>
