<svg width="112" height="112" viewBox="0 0 112 112" fill="none" xmlns="http://www.w3.org/2000/svg">
<circle cx="56" cy="56" r="56" fill="#D9D9D9"/>
<path d="M56 21.7793V90.2237" stroke="white" stroke-width="2" stroke-linecap="round" stroke-linejoin="round"/>
<path d="M71.5552 34.2207H48.2219C45.334 34.2207 42.5644 35.3679 40.5223 37.41C38.4802 39.452 37.333 42.2217 37.333 45.1096C37.333 47.9975 38.4802 50.7671 40.5223 52.8092C42.5644 54.8513 45.334 55.9985 48.2219 55.9985H63.7775C66.6654 55.9985 69.435 57.1457 71.4771 59.1878C73.5191 61.2298 74.6663 63.9995 74.6663 66.8874C74.6663 69.7753 73.5191 72.5449 71.4771 74.587C69.435 76.629 66.6654 77.7763 63.7775 77.7763H37.333" stroke="white" stroke-width="2" stroke-linecap="round" stroke-linejoin="round"/>
<circle cx="56" cy="56" r="56" fill="#D9D9D9"/>
<circle cx="56" cy="56" r="56" fill="#D9D9D9"/>
<path d="M50.5033 27.1068V41.4668H48.6433V31.2468C48.6433 31.0935 48.6466 30.9301 48.6533 30.7568C48.6666 30.5835 48.68 30.4068 48.6933 30.2268L43.9133 38.9968C43.7466 39.3235 43.49 39.4868 43.1433 39.4868H42.8433C42.4966 39.4868 42.2433 39.3235 42.0833 38.9968L37.2133 30.1968C37.2533 30.5701 37.2733 30.9201 37.2733 31.2468V41.4668H35.4033V27.1068H36.9833C37.17 27.1068 37.3133 27.1268 37.4133 27.1668C37.52 27.2001 37.62 27.3001 37.7133 27.4668L42.5133 36.0668C42.6066 36.2401 42.6933 36.4235 42.7733 36.6168C42.8533 36.8101 42.93 37.0035 43.0033 37.1968C43.1433 36.8035 43.3066 36.4235 43.4933 36.0568L48.2033 27.4668C48.29 27.3001 48.3833 27.2001 48.4833 27.1668C48.59 27.1268 48.7366 27.1068 48.9233 27.1068H50.5033ZM59.6456 35.7868V41.4668H57.5256V35.7868L52.2656 27.1068H54.1356C54.3223 27.1068 54.4723 27.1535 54.5856 27.2468C54.699 27.3335 54.7923 27.4501 54.8656 27.5968L57.9856 32.9668C58.1123 33.2135 58.2256 33.4468 58.3256 33.6668C58.4323 33.8868 58.5256 34.1035 58.6056 34.3168C58.679 34.1035 58.7623 33.8868 58.8556 33.6668C58.9556 33.4468 59.069 33.2135 59.1956 32.9668L62.3056 27.5968C62.3723 27.4768 62.4623 27.3668 62.5756 27.2668C62.6956 27.1601 62.8456 27.1068 63.0256 27.1068H64.9056L59.6456 35.7868ZM70.7233 34.0268C71.27 34.0268 71.75 33.9601 72.1633 33.8268C72.5833 33.6935 72.9333 33.5068 73.2133 33.2668C73.4933 33.0201 73.7033 32.7301 73.8433 32.3968C73.9833 32.0568 74.0533 31.6835 74.0533 31.2768C74.0533 30.4501 73.78 29.8268 73.2333 29.4068C72.6933 28.9868 71.88 28.7768 70.7933 28.7768H68.7833V34.0268H70.7233ZM77.4233 41.4668H75.5233C75.1433 41.4668 74.8666 41.3168 74.6933 41.0168L71.1433 36.0368C71.03 35.8701 70.9066 35.7535 70.7733 35.6868C70.64 35.6135 70.44 35.5768 70.1733 35.5768H68.7833V41.4668H66.6533V27.1068H70.7933C71.72 27.1068 72.5166 27.2035 73.1833 27.3968C73.8566 27.5835 74.41 27.8535 74.8433 28.2068C75.2833 28.5535 75.6066 28.9735 75.8133 29.4668C76.0266 29.9601 76.1333 30.5135 76.1333 31.1268C76.1333 31.6268 76.0566 32.0968 75.9033 32.5368C75.75 32.9768 75.5233 33.3735 75.2233 33.7268C74.93 34.0735 74.57 34.3735 74.1433 34.6268C73.7166 34.8801 73.2333 35.0735 72.6933 35.2068C72.96 35.3668 73.19 35.5901 73.3833 35.8768L77.4233 41.4668Z" fill="#8A8A8A"/>
<path d="M41.3628 85.6588C42.4961 85.6588 43.5045 85.5005 44.3878 85.1838C45.2711 84.8671 46.0211 84.4255 46.6378 83.8588C47.2545 83.2755 47.7211 82.5838 48.0378 81.7838C48.3545 80.9838 48.5128 80.1088 48.5128 79.1588C48.5128 77.9921 48.3211 76.9921 47.9378 76.1588C47.5545 75.3088 47.0378 74.6171 46.3878 74.0838C45.7378 73.5338 44.9795 73.1338 44.1128 72.8838C43.2461 72.6171 42.3295 72.4838 41.3628 72.4838C40.3795 72.4838 39.4545 72.6171 38.5878 72.8838C37.7211 73.1338 36.9628 73.5338 36.3128 74.0838C35.6628 74.6171 35.1461 75.3088 34.7628 76.1588C34.3961 76.9921 34.2128 77.9921 34.2128 79.1588C34.2128 80.1088 34.3711 80.9838 34.6878 81.7838C35.0045 82.5838 35.4711 83.2755 36.0878 83.8588C36.7045 84.4255 37.4545 84.8671 38.3378 85.1838C39.2211 85.5005 40.2295 85.6588 41.3628 85.6588ZM41.3628 56.5838C40.3295 56.5838 39.4211 56.7421 38.6378 57.0588C37.8711 57.3588 37.2295 57.7755 36.7128 58.3088C36.1961 58.8421 35.8045 59.4588 35.5378 60.1588C35.2878 60.8588 35.1628 61.6088 35.1628 62.4088C35.1628 63.1921 35.2711 63.9588 35.4878 64.7088C35.7211 65.4421 36.0795 66.1005 36.5628 66.6838C37.0628 67.2505 37.7045 67.7088 38.4878 68.0588C39.2711 68.4088 40.2295 68.5838 41.3628 68.5838C42.4795 68.5838 43.4295 68.4088 44.2128 68.0588C45.0128 67.7088 45.6545 67.2505 46.1378 66.6838C46.6378 66.1005 46.9961 65.4421 47.2128 64.7088C47.4461 63.9588 47.5628 63.1921 47.5628 62.4088C47.5628 61.6088 47.4295 60.8588 47.1628 60.1588C46.9128 59.4588 46.5295 58.8421 46.0128 58.3088C45.4961 57.7755 44.8461 57.3588 44.0628 57.0588C43.2961 56.7421 42.3961 56.5838 41.3628 56.5838ZM46.7378 70.4088C48.9711 71.0755 50.6628 72.1505 51.8128 73.6338C52.9795 75.1171 53.5628 76.9921 53.5628 79.2588C53.5628 80.8255 53.2628 82.2421 52.6628 83.5088C52.0795 84.7755 51.2461 85.8588 50.1628 86.7588C49.0961 87.6421 47.8128 88.3255 46.3128 88.8088C44.8128 89.2921 43.1628 89.5338 41.3628 89.5338C39.5628 89.5338 37.9128 89.2921 36.4128 88.8088C34.9128 88.3255 33.6211 87.6421 32.5378 86.7588C31.4711 85.8588 30.6378 84.7755 30.0378 83.5088C29.4545 82.2421 29.1628 80.8255 29.1628 79.2588C29.1628 76.9921 29.7378 75.1171 30.8878 73.6338C32.0545 72.1505 33.7545 71.0755 35.9878 70.4088C34.1378 69.7088 32.7461 68.6671 31.8128 67.2838C30.8795 65.8838 30.4128 64.2255 30.4128 62.3088C30.4128 60.9755 30.6711 59.7338 31.1878 58.5838C31.7211 57.4171 32.4628 56.4088 33.4128 55.5588C34.3795 54.7088 35.5378 54.0421 36.8878 53.5588C38.2378 53.0755 39.7295 52.8338 41.3628 52.8338C42.9961 52.8338 44.4878 53.0755 45.8378 53.5588C47.1878 54.0421 48.3378 54.7088 49.2878 55.5588C50.2545 56.4088 50.9961 57.4171 51.5128 58.5838C52.0461 59.7338 52.3128 60.9755 52.3128 62.3088C52.3128 64.2255 51.8461 65.8838 50.9128 67.2838C49.9795 68.6671 48.5878 69.7088 46.7378 70.4088ZM83.4167 71.1838C83.4167 74.3171 83.075 77.0338 82.3917 79.3338C81.725 81.6338 80.8 83.5421 79.6167 85.0588C78.45 86.5588 77.0667 87.6755 75.4667 88.4088C73.8834 89.1421 72.175 89.5088 70.3417 89.5088C68.5084 89.5088 66.7917 89.1421 65.1917 88.4088C63.6084 87.6755 62.2334 86.5588 61.0667 85.0588C59.9 83.5421 58.9834 81.6338 58.3167 79.3338C57.65 77.0338 57.3167 74.3171 57.3167 71.1838C57.3167 68.0505 57.65 65.3338 58.3167 63.0338C58.9834 60.7171 59.9 58.8088 61.0667 57.3088C62.2334 55.7921 63.6084 54.6671 65.1917 53.9338C66.7917 53.2005 68.5084 52.8338 70.3417 52.8338C72.175 52.8338 73.8834 53.2005 75.4667 53.9338C77.0667 54.6671 78.45 55.7921 79.6167 57.3088C80.8 58.8088 81.725 60.7171 82.3917 63.0338C83.075 65.3338 83.4167 68.0505 83.4167 71.1838ZM78.3667 71.1838C78.3667 68.4838 78.1417 66.2255 77.6917 64.4088C77.2584 62.5921 76.6667 61.1338 75.9167 60.0338C75.1834 58.9171 74.3334 58.1255 73.3667 57.6588C72.4 57.1921 71.3917 56.9588 70.3417 56.9588C69.2917 56.9588 68.2834 57.1921 67.3167 57.6588C66.35 58.1255 65.4917 58.9171 64.7417 60.0338C64.0084 61.1338 63.425 62.5921 62.9917 64.4088C62.5584 66.2255 62.3417 68.4838 62.3417 71.1838C62.3417 73.8838 62.5584 76.1421 62.9917 77.9588C63.425 79.7755 64.0084 81.2338 64.7417 82.3338C65.4917 83.4338 66.35 84.2171 67.3167 84.6838C68.2834 85.1505 69.2917 85.3838 70.3417 85.3838C71.3917 85.3838 72.4 85.1505 73.3667 84.6838C74.3334 84.2171 75.1834 83.4338 75.9167 82.3338C76.6667 81.2338 77.2584 79.7755 77.6917 77.9588C78.1417 76.1421 78.3667 73.8838 78.3667 71.1838Z" fill="#8A8A8A"/>
</svg>
