<svg width="121" height="121" viewBox="0 0 121 121" fill="none" xmlns="http://www.w3.org/2000/svg">
<g filter="url(#filter0_d_1646_322)">
<circle cx="60.5" cy="56.5" r="56.5" fill="#AD0C62"/>
</g>
<path d="M60.4995 21.9736V91.0292" stroke="white" stroke-width="2" stroke-linecap="round" stroke-linejoin="round"/>
<path d="M76.1943 34.5283H52.6526C49.7389 34.5283 46.9446 35.6858 44.8843 37.7461C42.824 39.8064 41.6665 42.6007 41.6665 45.5144C41.6665 48.4281 42.824 51.2225 44.8843 53.2828C46.9446 55.3431 49.7389 56.5005 52.6526 56.5005H68.3471C71.2608 56.5005 74.0551 57.658 76.1154 59.7183C78.1757 61.7786 79.3332 64.573 79.3332 67.4867C79.3332 70.4004 78.1757 73.1947 76.1154 75.255C74.0551 77.3153 71.2608 78.4728 68.3471 78.4728H41.6665" stroke="white" stroke-width="2" stroke-linecap="round" stroke-linejoin="round"/>
<defs>
<filter id="filter0_d_1646_322" x="0" y="0" width="121" height="121" filterUnits="userSpaceOnUse" color-interpolation-filters="sRGB">
<feFlood flood-opacity="0" result="BackgroundImageFix"/>
<feColorMatrix in="SourceAlpha" type="matrix" values="0 0 0 0 0 0 0 0 0 0 0 0 0 0 0 0 0 0 127 0" result="hardAlpha"/>
<feOffset dy="4"/>
<feGaussianBlur stdDeviation="2"/>
<feComposite in2="hardAlpha" operator="out"/>
<feColorMatrix type="matrix" values="0 0 0 0 0 0 0 0 0 0 0 0 0 0 0 0 0 0 0.25 0"/>
<feBlend mode="normal" in2="BackgroundImageFix" result="effect1_dropShadow_1646_322"/>
<feBlend mode="normal" in="SourceGraphic" in2="effect1_dropShadow_1646_322" result="shape"/>
</filter>
</defs>
</svg>
