<svg width="112" height="112" viewBox="0 0 112 112" fill="none" xmlns="http://www.w3.org/2000/svg">
<circle cx="56" cy="56" r="56" fill="#D9D9D9"/>
<path d="M56 21.7793V90.2237" stroke="white" stroke-width="2" stroke-linecap="round" stroke-linejoin="round"/>
<path d="M71.5555 34.2236H48.2221C45.3342 34.2236 42.5646 35.3709 40.5225 37.4129C38.4805 39.455 37.3333 42.2246 37.3333 45.1125C37.3333 48.0004 38.4805 50.7701 40.5225 52.8121C42.5646 54.8542 45.3342 56.0014 48.2221 56.0014H63.7777C66.6656 56.0014 69.4352 57.1486 71.4773 59.1907C73.5194 61.2328 74.6666 64.0024 74.6666 66.8903C74.6666 69.7782 73.5194 72.5478 71.4773 74.5899C69.4352 76.632 66.6656 77.7792 63.7777 77.7792H37.3333" stroke="white" stroke-width="2" stroke-linecap="round" stroke-linejoin="round"/>
</svg>
