<svg width="86" height="68" viewBox="0 0 86 68" fill="none" xmlns="http://www.w3.org/2000/svg">
<g filter="url(#filter0_d_1722_324)">
<circle cx="43" cy="16" r="16" fill="#AD0C62"/>
</g>
<path d="M43 6.22266V25.7782" stroke="white" stroke-width="2" stroke-linecap="round" stroke-linejoin="round"/>
<path d="M47.4443 9.77832H40.7776C39.9525 9.77832 39.1612 10.1061 38.5777 10.6895C37.9943 11.273 37.6665 12.0643 37.6665 12.8894C37.6665 13.7145 37.9943 14.5059 38.5777 15.0893C39.1612 15.6728 39.9525 16.0005 40.7776 16.0005H45.2221C46.0472 16.0005 46.8385 16.3283 47.4219 16.9118C48.0054 17.4952 48.3332 18.2865 48.3332 19.1117C48.3332 19.9368 48.0054 20.7281 47.4219 21.3115C46.8385 21.895 46.0472 22.2228 45.2221 22.2228H37.6665" stroke="white" stroke-width="2" stroke-linecap="round" stroke-linejoin="round"/>
<path d="M10.606 49.224C10.67 49.224 10.728 49.25 10.78 49.302L11.236 49.8C10.884 50.208 10.456 50.526 9.95195 50.754C9.45195 50.982 8.84795 51.096 8.13995 51.096C7.51995 51.096 6.95795 50.99 6.45395 50.778C5.94995 50.562 5.51995 50.262 5.16395 49.878C4.80795 49.49 4.53195 49.026 4.33595 48.486C4.13995 47.946 4.04195 47.352 4.04195 46.704C4.04195 46.056 4.14595 45.462 4.35395 44.922C4.56595 44.382 4.86195 43.918 5.24195 43.53C5.62195 43.142 6.07595 42.842 6.60395 42.63C7.13595 42.414 7.72195 42.306 8.36195 42.306C8.99395 42.306 9.53795 42.404 9.99395 42.6C10.454 42.796 10.862 43.062 11.218 43.398L10.84 43.932C10.812 43.972 10.78 44.006 10.744 44.034C10.708 44.058 10.656 44.07 10.588 44.07C10.536 44.07 10.48 44.052 10.42 44.016C10.364 43.976 10.296 43.928 10.216 43.872C10.136 43.816 10.042 43.756 9.93395 43.692C9.82595 43.628 9.69795 43.568 9.54995 43.512C9.40195 43.456 9.22995 43.41 9.03395 43.374C8.83795 43.334 8.61195 43.314 8.35595 43.314C7.89595 43.314 7.47395 43.394 7.08995 43.554C6.70995 43.71 6.38195 43.934 6.10595 44.226C5.82995 44.518 5.61395 44.874 5.45795 45.294C5.30595 45.714 5.22995 46.184 5.22995 46.704C5.22995 47.24 5.30595 47.718 5.45795 48.138C5.61395 48.558 5.82395 48.914 6.08795 49.206C6.35595 49.494 6.67195 49.714 7.03595 49.866C7.39995 50.018 7.79195 50.094 8.21195 50.094C8.46795 50.094 8.69795 50.08 8.90195 50.052C9.10595 50.02 9.29395 49.972 9.46595 49.908C9.64195 49.844 9.80395 49.764 9.95195 49.668C10.104 49.568 10.256 49.45 10.408 49.314C10.476 49.254 10.542 49.224 10.606 49.224ZM13.7808 42.162V51H12.7128V42.162H13.7808ZM16.8511 44.922V51H15.7831V44.922H16.8511ZM17.0911 43.014C17.0911 43.118 17.0691 43.216 17.0251 43.308C16.9851 43.396 16.9291 43.476 16.8571 43.548C16.7891 43.616 16.7091 43.67 16.6171 43.71C16.5251 43.75 16.4271 43.77 16.3231 43.77C16.2191 43.77 16.1211 43.75 16.0291 43.71C15.9411 43.67 15.8611 43.616 15.7891 43.548C15.7211 43.476 15.6671 43.396 15.6271 43.308C15.5871 43.216 15.5671 43.118 15.5671 43.014C15.5671 42.91 15.5871 42.812 15.6271 42.72C15.6671 42.624 15.7211 42.542 15.7891 42.474C15.8611 42.402 15.9411 42.346 16.0291 42.306C16.1211 42.266 16.2191 42.246 16.3231 42.246C16.4271 42.246 16.5251 42.266 16.6171 42.306C16.7091 42.346 16.7891 42.402 16.8571 42.474C16.9291 42.542 16.9851 42.624 17.0251 42.72C17.0691 42.812 17.0911 42.91 17.0911 43.014ZM22.8794 46.002C22.8474 46.046 22.8154 46.08 22.7834 46.104C22.7514 46.128 22.7054 46.14 22.6454 46.14C22.5854 46.14 22.5194 46.116 22.4474 46.068C22.3794 46.016 22.2914 45.96 22.1834 45.9C22.0754 45.84 21.9434 45.786 21.7874 45.738C21.6354 45.686 21.4474 45.66 21.2234 45.66C20.9274 45.66 20.6654 45.714 20.4374 45.822C20.2094 45.926 20.0174 46.078 19.8614 46.278C19.7094 46.478 19.5934 46.72 19.5134 47.004C19.4374 47.288 19.3994 47.606 19.3994 47.958C19.3994 48.326 19.4414 48.654 19.5254 48.942C19.6094 49.226 19.7274 49.466 19.8794 49.662C20.0314 49.854 20.2154 50.002 20.4314 50.106C20.6514 50.206 20.8974 50.256 21.1694 50.256C21.4294 50.256 21.6434 50.226 21.8114 50.166C21.9794 50.102 22.1194 50.032 22.2314 49.956C22.3434 49.88 22.4354 49.812 22.5074 49.752C22.5794 49.688 22.6514 49.656 22.7234 49.656C22.8154 49.656 22.8834 49.69 22.9274 49.758L23.2274 50.148C22.9634 50.472 22.6334 50.71 22.2374 50.862C21.8414 51.01 21.4234 51.084 20.9834 51.084C20.6034 51.084 20.2494 51.014 19.9214 50.874C19.5974 50.734 19.3154 50.532 19.0754 50.268C18.8354 50 18.6454 49.672 18.5054 49.284C18.3694 48.896 18.3014 48.454 18.3014 47.958C18.3014 47.506 18.3634 47.088 18.4874 46.704C18.6154 46.32 18.7994 45.99 19.0394 45.714C19.2834 45.434 19.5834 45.216 19.9394 45.06C20.2954 44.904 20.7034 44.826 21.1634 44.826C21.5874 44.826 21.9634 44.896 22.2914 45.036C22.6194 45.172 22.9094 45.366 23.1614 45.618L22.8794 46.002ZM25.445 42.162V47.364H25.721C25.801 47.364 25.867 47.354 25.919 47.334C25.971 47.31 26.029 47.264 26.093 47.196L28.013 45.138C28.073 45.074 28.133 45.022 28.193 44.982C28.253 44.942 28.333 44.922 28.433 44.922H29.405L27.167 47.304C27.111 47.372 27.055 47.432 26.999 47.484C26.947 47.536 26.887 47.582 26.819 47.622C26.891 47.67 26.955 47.726 27.011 47.79C27.071 47.85 27.127 47.92 27.179 48L29.555 51H28.595C28.507 51 28.431 50.984 28.367 50.952C28.307 50.916 28.249 50.862 28.193 50.79L26.195 48.3C26.135 48.216 26.075 48.162 26.015 48.138C25.955 48.11 25.865 48.096 25.745 48.096H25.445V51H24.371V42.162H25.445ZM34.8503 51.054C34.3823 50.99 33.9423 50.862 33.5303 50.67C33.1223 50.478 32.7743 50.24 32.4863 49.956L32.9423 49.278C32.9823 49.218 33.0343 49.17 33.0983 49.134C33.1663 49.094 33.2363 49.074 33.3083 49.074C33.3963 49.074 33.4903 49.106 33.5903 49.17C33.6903 49.23 33.8043 49.302 33.9323 49.386C34.0603 49.47 34.2063 49.554 34.3703 49.638C34.5343 49.722 34.7283 49.784 34.9523 49.824L35.1803 47.136C34.8963 47.056 34.6143 46.962 34.3343 46.854C34.0583 46.746 33.8083 46.604 33.5843 46.428C33.3643 46.248 33.1863 46.022 33.0503 45.75C32.9143 45.478 32.8463 45.138 32.8463 44.73C32.8463 44.426 32.9063 44.13 33.0263 43.842C33.1503 43.55 33.3283 43.29 33.5603 43.062C33.7923 42.834 34.0783 42.646 34.4183 42.498C34.7583 42.35 35.1483 42.266 35.5883 42.246L35.6543 41.49C35.6623 41.394 35.7023 41.308 35.7743 41.232C35.8463 41.156 35.9403 41.118 36.0563 41.118H36.6023L36.5003 42.3C36.9243 42.368 37.2903 42.488 37.5983 42.66C37.9063 42.832 38.1743 43.026 38.4023 43.242L38.0423 43.788C37.9863 43.868 37.9303 43.928 37.8743 43.968C37.8183 44.008 37.7503 44.028 37.6703 44.028C37.6103 44.028 37.5383 44.01 37.4543 43.974C37.3743 43.934 37.2803 43.888 37.1723 43.836C37.0683 43.78 36.9523 43.724 36.8243 43.668C36.6963 43.612 36.5543 43.566 36.3983 43.53L36.1883 46.014C36.4763 46.102 36.7603 46.2 37.0403 46.308C37.3243 46.412 37.5783 46.548 37.8023 46.716C38.0303 46.884 38.2143 47.094 38.3543 47.346C38.4943 47.594 38.5643 47.906 38.5643 48.282C38.5643 48.654 38.5023 49.004 38.3783 49.332C38.2543 49.656 38.0723 49.944 37.8323 50.196C37.5963 50.444 37.3043 50.646 36.9563 50.802C36.6083 50.958 36.2103 51.052 35.7623 51.084L35.6903 51.966C35.6823 52.058 35.6423 52.142 35.5703 52.218C35.4983 52.298 35.4043 52.338 35.2883 52.338H34.7423L34.8503 51.054ZM37.1603 48.51C37.1603 48.358 37.1323 48.226 37.0763 48.114C37.0243 47.998 36.9483 47.896 36.8483 47.808C36.7523 47.72 36.6383 47.644 36.5063 47.58C36.3743 47.516 36.2303 47.458 36.0743 47.406L35.8703 49.842C36.2943 49.786 36.6143 49.644 36.8303 49.416C37.0503 49.184 37.1603 48.882 37.1603 48.51ZM34.2443 44.586C34.2443 44.738 34.2703 44.872 34.3223 44.988C34.3743 45.104 34.4463 45.208 34.5383 45.3C34.6343 45.388 34.7463 45.468 34.8743 45.54C35.0023 45.608 35.1423 45.67 35.2943 45.726L35.4803 43.506C35.2603 43.534 35.0723 43.582 34.9163 43.65C34.7603 43.714 34.6323 43.794 34.5323 43.89C34.4323 43.986 34.3583 44.094 34.3103 44.214C34.2663 44.33 34.2443 44.454 34.2443 44.586ZM44.0715 51.096C43.5915 51.096 43.2215 50.962 42.9615 50.694C42.7055 50.426 42.5775 50.04 42.5775 49.536V45.816H41.8455C41.7815 45.816 41.7275 45.798 41.6835 45.762C41.6395 45.722 41.6175 45.662 41.6175 45.582V45.156L42.6135 45.03L42.8595 43.152C42.8675 43.092 42.8935 43.044 42.9375 43.008C42.9815 42.968 43.0375 42.948 43.1055 42.948H43.6455V45.042H45.3855V45.816H43.6455V49.464C43.6455 49.72 43.7075 49.91 43.8315 50.034C43.9555 50.158 44.1155 50.22 44.3115 50.22C44.4235 50.22 44.5195 50.206 44.5995 50.178C44.6835 50.146 44.7555 50.112 44.8155 50.076C44.8755 50.04 44.9255 50.008 44.9655 49.98C45.0095 49.948 45.0475 49.932 45.0795 49.932C45.1355 49.932 45.1855 49.966 45.2295 50.034L45.5415 50.544C45.3575 50.716 45.1355 50.852 44.8755 50.952C44.6155 51.048 44.3475 51.096 44.0715 51.096ZM49.1661 44.826C49.6101 44.826 50.0101 44.9 50.3661 45.048C50.7261 45.196 51.0301 45.406 51.2781 45.678C51.5301 45.95 51.7221 46.28 51.8541 46.668C51.9901 47.052 52.0581 47.482 52.0581 47.958C52.0581 48.438 51.9901 48.87 51.8541 49.254C51.7221 49.638 51.5301 49.966 51.2781 50.238C51.0301 50.51 50.7261 50.72 50.3661 50.868C50.0101 51.012 49.6101 51.084 49.1661 51.084C48.7221 51.084 48.3201 51.012 47.9601 50.868C47.6041 50.72 47.3001 50.51 47.0481 50.238C46.7961 49.966 46.6021 49.638 46.4661 49.254C46.3301 48.87 46.2621 48.438 46.2621 47.958C46.2621 47.482 46.3301 47.052 46.4661 46.668C46.6021 46.28 46.7961 45.95 47.0481 45.678C47.3001 45.406 47.6041 45.196 47.9601 45.048C48.3201 44.9 48.7221 44.826 49.1661 44.826ZM49.1661 50.25C49.7661 50.25 50.2141 50.05 50.5101 49.65C50.8061 49.246 50.9541 48.684 50.9541 47.964C50.9541 47.24 50.8061 46.676 50.5101 46.272C50.2141 45.868 49.7661 45.666 49.1661 45.666C48.8621 45.666 48.5981 45.718 48.3741 45.822C48.1501 45.926 47.9621 46.076 47.8101 46.272C47.6621 46.468 47.5501 46.71 47.4741 46.998C47.4021 47.282 47.3661 47.604 47.3661 47.964C47.3661 48.324 47.4021 48.646 47.4741 48.93C47.5501 49.214 47.6621 49.454 47.8101 49.65C47.9621 49.842 48.1501 49.99 48.3741 50.094C48.5981 50.198 48.8621 50.25 49.1661 50.25ZM59.8404 46.002C59.8084 46.046 59.7764 46.08 59.7444 46.104C59.7124 46.128 59.6664 46.14 59.6064 46.14C59.5464 46.14 59.4804 46.116 59.4084 46.068C59.3404 46.016 59.2524 45.96 59.1444 45.9C59.0364 45.84 58.9044 45.786 58.7484 45.738C58.5964 45.686 58.4084 45.66 58.1844 45.66C57.8884 45.66 57.6264 45.714 57.3984 45.822C57.1704 45.926 56.9784 46.078 56.8224 46.278C56.6704 46.478 56.5544 46.72 56.4744 47.004C56.3984 47.288 56.3604 47.606 56.3604 47.958C56.3604 48.326 56.4024 48.654 56.4864 48.942C56.5704 49.226 56.6884 49.466 56.8404 49.662C56.9924 49.854 57.1764 50.002 57.3924 50.106C57.6124 50.206 57.8584 50.256 58.1304 50.256C58.3904 50.256 58.6044 50.226 58.7724 50.166C58.9404 50.102 59.0804 50.032 59.1924 49.956C59.3044 49.88 59.3964 49.812 59.4684 49.752C59.5404 49.688 59.6124 49.656 59.6844 49.656C59.7764 49.656 59.8444 49.69 59.8884 49.758L60.1884 50.148C59.9244 50.472 59.5944 50.71 59.1984 50.862C58.8024 51.01 58.3844 51.084 57.9444 51.084C57.5644 51.084 57.2104 51.014 56.8824 50.874C56.5584 50.734 56.2764 50.532 56.0364 50.268C55.7964 50 55.6064 49.672 55.4664 49.284C55.3304 48.896 55.2624 48.454 55.2624 47.958C55.2624 47.506 55.3244 47.088 55.4484 46.704C55.5764 46.32 55.7604 45.99 56.0004 45.714C56.2444 45.434 56.5444 45.216 56.9004 45.06C57.2564 44.904 57.6644 44.826 58.1244 44.826C58.5484 44.826 58.9244 44.896 59.2524 45.036C59.5804 45.172 59.8704 45.366 60.1224 45.618L59.8404 46.002ZM62.4839 42.162V51H61.4159V42.162H62.4839ZM68.8302 51H68.3562C68.2522 51 68.1682 50.984 68.1042 50.952C68.0402 50.92 67.9982 50.852 67.9782 50.748L67.8582 50.184C67.6982 50.328 67.5422 50.458 67.3902 50.574C67.2382 50.686 67.0782 50.782 66.9102 50.862C66.7422 50.938 66.5622 50.996 66.3702 51.036C66.1822 51.076 65.9722 51.096 65.7402 51.096C65.5042 51.096 65.2822 51.064 65.0742 51C64.8702 50.932 64.6922 50.832 64.5402 50.7C64.3882 50.568 64.2662 50.402 64.1742 50.202C64.0862 49.998 64.0422 49.758 64.0422 49.482C64.0422 49.242 64.1082 49.012 64.2402 48.792C64.3722 48.568 64.5842 48.37 64.8762 48.198C65.1722 48.026 65.5582 47.886 66.0342 47.778C66.5102 47.666 67.0922 47.602 67.7802 47.586V47.112C67.7802 46.64 67.6782 46.284 67.4742 46.044C67.2742 45.8 66.9762 45.678 66.5802 45.678C66.3202 45.678 66.1002 45.712 65.9202 45.78C65.7442 45.844 65.5902 45.918 65.4582 46.002C65.3302 46.082 65.2182 46.156 65.1222 46.224C65.0302 46.288 64.9382 46.32 64.8462 46.32C64.7742 46.32 64.7102 46.302 64.6542 46.266C64.6022 46.226 64.5602 46.178 64.5282 46.122L64.3362 45.78C64.6722 45.456 65.0342 45.214 65.4222 45.054C65.8102 44.894 66.2402 44.814 66.7122 44.814C67.0522 44.814 67.3542 44.87 67.6182 44.982C67.8822 45.094 68.1042 45.25 68.2842 45.45C68.4642 45.65 68.6002 45.892 68.6922 46.176C68.7842 46.46 68.8302 46.772 68.8302 47.112V51ZM66.0582 50.346C66.2462 50.346 66.4182 50.328 66.5742 50.292C66.7302 50.252 66.8762 50.198 67.0122 50.13C67.1522 50.058 67.2842 49.972 67.4082 49.872C67.5362 49.772 67.6602 49.658 67.7802 49.53V48.264C67.2882 48.28 66.8702 48.32 66.5262 48.384C66.1822 48.444 65.9022 48.524 65.6862 48.624C65.4702 48.724 65.3122 48.842 65.2122 48.978C65.1162 49.114 65.0682 49.266 65.0682 49.434C65.0682 49.594 65.0942 49.732 65.1462 49.848C65.1982 49.964 65.2682 50.06 65.3562 50.136C65.4442 50.208 65.5482 50.262 65.6682 50.298C65.7882 50.33 65.9182 50.346 66.0582 50.346ZM71.6363 44.922V51H70.5683V44.922H71.6363ZM71.8763 43.014C71.8763 43.118 71.8543 43.216 71.8103 43.308C71.7703 43.396 71.7143 43.476 71.6423 43.548C71.5743 43.616 71.4943 43.67 71.4023 43.71C71.3103 43.75 71.2123 43.77 71.1083 43.77C71.0043 43.77 70.9063 43.75 70.8143 43.71C70.7263 43.67 70.6463 43.616 70.5743 43.548C70.5063 43.476 70.4523 43.396 70.4123 43.308C70.3723 43.216 70.3523 43.118 70.3523 43.014C70.3523 42.91 70.3723 42.812 70.4123 42.72C70.4523 42.624 70.5063 42.542 70.5743 42.474C70.6463 42.402 70.7263 42.346 70.8143 42.306C70.9063 42.266 71.0043 42.246 71.1083 42.246C71.2123 42.246 71.3103 42.266 71.4023 42.306C71.4943 42.346 71.5743 42.402 71.6423 42.474C71.7143 42.542 71.7703 42.624 71.8103 42.72C71.8543 42.812 71.8763 42.91 71.8763 43.014ZM73.5186 51V44.922H74.1546C74.3066 44.922 74.4026 44.996 74.4426 45.144L74.5206 45.768C74.7446 45.492 74.9946 45.266 75.2706 45.09C75.5506 44.914 75.8746 44.826 76.2426 44.826C76.6546 44.826 76.9866 44.94 77.2386 45.168C77.4946 45.396 77.6786 45.704 77.7906 46.092C77.8746 45.872 77.9846 45.682 78.1206 45.522C78.2606 45.362 78.4166 45.23 78.5886 45.126C78.7606 45.022 78.9426 44.946 79.1346 44.898C79.3306 44.85 79.5286 44.826 79.7286 44.826C80.0486 44.826 80.3326 44.878 80.5806 44.982C80.8326 45.082 81.0446 45.23 81.2166 45.426C81.3926 45.622 81.5266 45.864 81.6186 46.152C81.7106 46.436 81.7566 46.762 81.7566 47.13V51H80.6886V47.13C80.6886 46.654 80.5846 46.294 80.3766 46.05C80.1686 45.802 79.8666 45.678 79.4706 45.678C79.2946 45.678 79.1266 45.71 78.9666 45.774C78.8106 45.834 78.6726 45.924 78.5526 46.044C78.4326 46.164 78.3366 46.316 78.2646 46.5C78.1966 46.68 78.1626 46.89 78.1626 47.13V51H77.0946V47.13C77.0946 46.642 76.9966 46.278 76.8006 46.038C76.6046 45.798 76.3186 45.678 75.9426 45.678C75.6786 45.678 75.4326 45.75 75.2046 45.894C74.9806 46.034 74.7746 46.226 74.5866 46.47V51H73.5186ZM9.4412 66.794C9.4052 66.874 9.3592 66.938 9.3032 66.986C9.2512 67.034 9.1692 67.058 9.0572 67.058H8.2652L9.3752 64.646L6.8672 58.922H7.7912C7.8832 58.922 7.9552 58.946 8.0072 58.994C8.0592 59.038 8.0972 59.088 8.1212 59.144L9.7472 62.972C9.7832 63.06 9.8132 63.148 9.8372 63.236C9.8652 63.324 9.8892 63.414 9.9092 63.506C9.9372 63.414 9.9652 63.324 9.9932 63.236C10.0212 63.148 10.0532 63.058 10.0892 62.966L11.6672 59.144C11.6912 59.08 11.7312 59.028 11.7872 58.988C11.8472 58.944 11.9112 58.922 11.9792 58.922H12.8312L9.4412 66.794ZM16.1075 58.826C16.5515 58.826 16.9515 58.9 17.3075 59.048C17.6675 59.196 17.9715 59.406 18.2195 59.678C18.4715 59.95 18.6635 60.28 18.7955 60.668C18.9315 61.052 18.9995 61.482 18.9995 61.958C18.9995 62.438 18.9315 62.87 18.7955 63.254C18.6635 63.638 18.4715 63.966 18.2195 64.238C17.9715 64.51 17.6675 64.72 17.3075 64.868C16.9515 65.012 16.5515 65.084 16.1075 65.084C15.6635 65.084 15.2615 65.012 14.9015 64.868C14.5455 64.72 14.2415 64.51 13.9895 64.238C13.7375 63.966 13.5435 63.638 13.4075 63.254C13.2715 62.87 13.2035 62.438 13.2035 61.958C13.2035 61.482 13.2715 61.052 13.4075 60.668C13.5435 60.28 13.7375 59.95 13.9895 59.678C14.2415 59.406 14.5455 59.196 14.9015 59.048C15.2615 58.9 15.6635 58.826 16.1075 58.826ZM16.1075 64.25C16.7075 64.25 17.1555 64.05 17.4515 63.65C17.7475 63.246 17.8955 62.684 17.8955 61.964C17.8955 61.24 17.7475 60.676 17.4515 60.272C17.1555 59.868 16.7075 59.666 16.1075 59.666C15.8035 59.666 15.5395 59.718 15.3155 59.822C15.0915 59.926 14.9035 60.076 14.7515 60.272C14.6035 60.468 14.4915 60.71 14.4155 60.998C14.3435 61.282 14.3075 61.604 14.3075 61.964C14.3075 62.324 14.3435 62.646 14.4155 62.93C14.4915 63.214 14.6035 63.454 14.7515 63.65C14.9035 63.842 15.0915 63.99 15.3155 64.094C15.5395 64.198 15.8035 64.25 16.1075 64.25ZM21.2395 58.922V62.798C21.2395 63.258 21.3455 63.614 21.5575 63.866C21.7695 64.118 22.0895 64.244 22.5175 64.244C22.8295 64.244 23.1235 64.17 23.3995 64.022C23.6755 63.874 23.9295 63.668 24.1615 63.404V58.922H25.2295V65H24.5935C24.4415 65 24.3455 64.926 24.3055 64.778L24.2215 64.124C23.9575 64.416 23.6615 64.652 23.3335 64.832C23.0055 65.008 22.6295 65.096 22.2055 65.096C21.8735 65.096 21.5795 65.042 21.3235 64.934C21.0715 64.822 20.8595 64.666 20.6875 64.466C20.5155 64.266 20.3855 64.024 20.2975 63.74C20.2135 63.456 20.1715 63.142 20.1715 62.798V58.922H21.2395ZM26.9834 65V58.922H27.5954C27.7114 58.922 27.7914 58.944 27.8354 58.988C27.8794 59.032 27.9094 59.108 27.9254 59.216L27.9974 60.164C28.2054 59.74 28.4614 59.41 28.7654 59.174C29.0734 58.934 29.4334 58.814 29.8454 58.814C30.0134 58.814 30.1654 58.834 30.3014 58.874C30.4374 58.91 30.5634 58.962 30.6794 59.03L30.5414 59.828C30.5134 59.928 30.4514 59.978 30.3554 59.978C30.2994 59.978 30.2134 59.96 30.0974 59.924C29.9814 59.884 29.8194 59.864 29.6114 59.864C29.2394 59.864 28.9274 59.972 28.6754 60.188C28.4274 60.404 28.2194 60.718 28.0514 61.13V65H26.9834ZM34.1436 67.058V58.922H34.7796C34.9316 58.922 35.0276 58.996 35.0676 59.144L35.1576 59.864C35.4176 59.548 35.7136 59.294 36.0456 59.102C36.3816 58.91 36.7676 58.814 37.2036 58.814C37.5516 58.814 37.8676 58.882 38.1516 59.018C38.4356 59.15 38.6776 59.348 38.8776 59.612C39.0776 59.872 39.2316 60.196 39.3396 60.584C39.4476 60.972 39.5016 61.418 39.5016 61.922C39.5016 62.37 39.4416 62.788 39.3216 63.176C39.2016 63.56 39.0296 63.894 38.8056 64.178C38.5816 64.458 38.3056 64.68 37.9776 64.844C37.6536 65.004 37.2876 65.084 36.8796 65.084C36.5036 65.084 36.1816 65.022 35.9136 64.898C35.6496 64.774 35.4156 64.598 35.2116 64.37V67.058H34.1436ZM36.8496 59.678C36.5016 59.678 36.1956 59.758 35.9316 59.918C35.6716 60.078 35.4316 60.304 35.2116 60.596V63.536C35.4076 63.8 35.6216 63.986 35.8536 64.094C36.0896 64.202 36.3516 64.256 36.6396 64.256C37.2036 64.256 37.6376 64.054 37.9416 63.65C38.2456 63.246 38.3976 62.67 38.3976 61.922C38.3976 61.526 38.3616 61.186 38.2896 60.902C38.2216 60.618 38.1216 60.386 37.9896 60.206C37.8576 60.022 37.6956 59.888 37.5036 59.804C37.3116 59.72 37.0936 59.678 36.8496 59.678ZM45.2287 65H44.7547C44.6507 65 44.5667 64.984 44.5027 64.952C44.4387 64.92 44.3967 64.852 44.3767 64.748L44.2567 64.184C44.0967 64.328 43.9407 64.458 43.7887 64.574C43.6367 64.686 43.4767 64.782 43.3087 64.862C43.1407 64.938 42.9607 64.996 42.7687 65.036C42.5807 65.076 42.3707 65.096 42.1387 65.096C41.9027 65.096 41.6807 65.064 41.4727 65C41.2687 64.932 41.0907 64.832 40.9387 64.7C40.7867 64.568 40.6647 64.402 40.5727 64.202C40.4847 63.998 40.4407 63.758 40.4407 63.482C40.4407 63.242 40.5067 63.012 40.6387 62.792C40.7707 62.568 40.9827 62.37 41.2747 62.198C41.5707 62.026 41.9567 61.886 42.4327 61.778C42.9087 61.666 43.4907 61.602 44.1787 61.586V61.112C44.1787 60.64 44.0767 60.284 43.8727 60.044C43.6727 59.8 43.3747 59.678 42.9787 59.678C42.7187 59.678 42.4987 59.712 42.3187 59.78C42.1427 59.844 41.9887 59.918 41.8567 60.002C41.7287 60.082 41.6167 60.156 41.5207 60.224C41.4287 60.288 41.3367 60.32 41.2447 60.32C41.1727 60.32 41.1087 60.302 41.0527 60.266C41.0007 60.226 40.9587 60.178 40.9267 60.122L40.7347 59.78C41.0707 59.456 41.4327 59.214 41.8207 59.054C42.2087 58.894 42.6387 58.814 43.1107 58.814C43.4507 58.814 43.7527 58.87 44.0167 58.982C44.2807 59.094 44.5027 59.25 44.6827 59.45C44.8627 59.65 44.9987 59.892 45.0907 60.176C45.1827 60.46 45.2287 60.772 45.2287 61.112V65ZM42.4567 64.346C42.6447 64.346 42.8167 64.328 42.9727 64.292C43.1287 64.252 43.2747 64.198 43.4107 64.13C43.5507 64.058 43.6827 63.972 43.8067 63.872C43.9347 63.772 44.0587 63.658 44.1787 63.53V62.264C43.6867 62.28 43.2687 62.32 42.9247 62.384C42.5807 62.444 42.3007 62.524 42.0847 62.624C41.8687 62.724 41.7107 62.842 41.6107 62.978C41.5147 63.114 41.4667 63.266 41.4667 63.434C41.4667 63.594 41.4927 63.732 41.5447 63.848C41.5967 63.964 41.6667 64.06 41.7547 64.136C41.8427 64.208 41.9467 64.262 42.0667 64.298C42.1867 64.33 42.3167 64.346 42.4567 64.346ZM48.4412 66.794C48.4052 66.874 48.3592 66.938 48.3032 66.986C48.2512 67.034 48.1692 67.058 48.0572 67.058H47.2652L48.3752 64.646L45.8672 58.922H46.7912C46.8832 58.922 46.9552 58.946 47.0072 58.994C47.0592 59.038 47.0972 59.088 47.1212 59.144L48.7472 62.972C48.7832 63.06 48.8132 63.148 48.8372 63.236C48.8652 63.324 48.8892 63.414 48.9092 63.506C48.9372 63.414 48.9652 63.324 48.9932 63.236C49.0212 63.148 49.0532 63.058 49.0892 62.966L50.6672 59.144C50.6912 59.08 50.7312 59.028 50.7872 58.988C50.8472 58.944 50.9112 58.922 50.9792 58.922H51.8312L48.4412 66.794ZM52.7998 65V58.922H53.4358C53.5878 58.922 53.6838 58.996 53.7238 59.144L53.8018 59.768C54.0258 59.492 54.2758 59.266 54.5518 59.09C54.8318 58.914 55.1558 58.826 55.5238 58.826C55.9358 58.826 56.2678 58.94 56.5198 59.168C56.7758 59.396 56.9598 59.704 57.0718 60.092C57.1558 59.872 57.2658 59.682 57.4018 59.522C57.5418 59.362 57.6978 59.23 57.8698 59.126C58.0418 59.022 58.2238 58.946 58.4158 58.898C58.6118 58.85 58.8098 58.826 59.0098 58.826C59.3298 58.826 59.6138 58.878 59.8618 58.982C60.1138 59.082 60.3258 59.23 60.4978 59.426C60.6738 59.622 60.8078 59.864 60.8998 60.152C60.9918 60.436 61.0378 60.762 61.0378 61.13V65H59.9698V61.13C59.9698 60.654 59.8658 60.294 59.6578 60.05C59.4498 59.802 59.1478 59.678 58.7518 59.678C58.5758 59.678 58.4078 59.71 58.2478 59.774C58.0918 59.834 57.9538 59.924 57.8338 60.044C57.7138 60.164 57.6178 60.316 57.5458 60.5C57.4778 60.68 57.4438 60.89 57.4438 61.13V65H56.3758V61.13C56.3758 60.642 56.2778 60.278 56.0818 60.038C55.8858 59.798 55.5998 59.678 55.2238 59.678C54.9598 59.678 54.7138 59.75 54.4858 59.894C54.2618 60.034 54.0558 60.226 53.8678 60.47V65H52.7998ZM65.0613 58.826C65.4253 58.826 65.7613 58.888 66.0693 59.012C66.3773 59.132 66.6433 59.308 66.8673 59.54C67.0913 59.768 67.2653 60.052 67.3893 60.392C67.5173 60.728 67.5813 61.112 67.5813 61.544C67.5813 61.712 67.5633 61.824 67.5273 61.88C67.4913 61.936 67.4233 61.964 67.3233 61.964H63.2793C63.2873 62.348 63.3393 62.682 63.4353 62.966C63.5313 63.25 63.6633 63.488 63.8313 63.68C63.9993 63.868 64.1993 64.01 64.4313 64.106C64.6633 64.198 64.9233 64.244 65.2113 64.244C65.4793 64.244 65.7093 64.214 65.9013 64.154C66.0973 64.09 66.2653 64.022 66.4053 63.95C66.5453 63.878 66.6613 63.812 66.7533 63.752C66.8493 63.688 66.9313 63.656 66.9993 63.656C67.0873 63.656 67.1553 63.69 67.2033 63.758L67.5033 64.148C67.3713 64.308 67.2133 64.448 67.0293 64.568C66.8453 64.684 66.6473 64.78 66.4353 64.856C66.2273 64.932 66.0113 64.988 65.7873 65.024C65.5633 65.064 65.3413 65.084 65.1213 65.084C64.7013 65.084 64.3133 65.014 63.9573 64.874C63.6053 64.73 63.2993 64.522 63.0393 64.25C62.7833 63.974 62.5833 63.634 62.4393 63.23C62.2953 62.826 62.2233 62.362 62.2233 61.838C62.2233 61.414 62.2873 61.018 62.4153 60.65C62.5473 60.282 62.7353 59.964 62.9793 59.696C63.2233 59.424 63.5213 59.212 63.8733 59.06C64.2253 58.904 64.6213 58.826 65.0613 58.826ZM65.0853 59.612C64.5693 59.612 64.1633 59.762 63.8673 60.062C63.5713 60.358 63.3873 60.77 63.3153 61.298H66.6213C66.6213 61.05 66.5873 60.824 66.5193 60.62C66.4513 60.412 66.3513 60.234 66.2193 60.086C66.0873 59.934 65.9253 59.818 65.7333 59.738C65.5453 59.654 65.3293 59.612 65.0853 59.612ZM68.9483 65V58.922H69.5843C69.7363 58.922 69.8323 58.996 69.8723 59.144L69.9563 59.804C70.2203 59.512 70.5143 59.276 70.8383 59.096C71.1663 58.916 71.5443 58.826 71.9723 58.826C72.3043 58.826 72.5963 58.882 72.8483 58.994C73.1043 59.102 73.3163 59.258 73.4843 59.462C73.6563 59.662 73.7863 59.904 73.8743 60.188C73.9623 60.472 74.0063 60.786 74.0063 61.13V65H72.9383V61.13C72.9383 60.67 72.8323 60.314 72.6203 60.062C72.4123 59.806 72.0923 59.678 71.6603 59.678C71.3443 59.678 71.0483 59.754 70.7723 59.906C70.5003 60.058 70.2483 60.264 70.0163 60.524V65H68.9483ZM77.4582 65.096C76.9782 65.096 76.6082 64.962 76.3482 64.694C76.0922 64.426 75.9642 64.04 75.9642 63.536V59.816H75.2322C75.1682 59.816 75.1142 59.798 75.0702 59.762C75.0262 59.722 75.0042 59.662 75.0042 59.582V59.156L76.0002 59.03L76.2462 57.152C76.2542 57.092 76.2802 57.044 76.3242 57.008C76.3682 56.968 76.4242 56.948 76.4922 56.948H77.0322V59.042H78.7722V59.816H77.0322V63.464C77.0322 63.72 77.0942 63.91 77.2182 64.034C77.3422 64.158 77.5022 64.22 77.6982 64.22C77.8102 64.22 77.9062 64.206 77.9862 64.178C78.0702 64.146 78.1422 64.112 78.2022 64.076C78.2622 64.04 78.3122 64.008 78.3522 63.98C78.3962 63.948 78.4342 63.932 78.4662 63.932C78.5222 63.932 78.5722 63.966 78.6162 64.034L78.9282 64.544C78.7442 64.716 78.5222 64.852 78.2622 64.952C78.0022 65.048 77.7342 65.096 77.4582 65.096Z" fill="#0A4797"/>
<defs>
<filter id="filter0_d_1722_324" x="23" y="0" width="40" height="40" filterUnits="userSpaceOnUse" color-interpolation-filters="sRGB">
<feFlood flood-opacity="0" result="BackgroundImageFix"/>
<feColorMatrix in="SourceAlpha" type="matrix" values="0 0 0 0 0 0 0 0 0 0 0 0 0 0 0 0 0 0 127 0" result="hardAlpha"/>
<feOffset dy="4"/>
<feGaussianBlur stdDeviation="2"/>
<feComposite in2="hardAlpha" operator="out"/>
<feColorMatrix type="matrix" values="0 0 0 0 0 0 0 0 0 0 0 0 0 0 0 0 0 0 0.25 0"/>
<feBlend mode="normal" in2="BackgroundImageFix" result="effect1_dropShadow_1722_324"/>
<feBlend mode="normal" in="SourceGraphic" in2="effect1_dropShadow_1722_324" result="shape"/>
</filter>
</defs>
</svg>
