<svg width="113" height="113" viewBox="0 0 113 113" fill="none" xmlns="http://www.w3.org/2000/svg">
<g filter="url(#filter0_d_1451_251)">
<circle cx="56.5" cy="52.5" r="52.5" fill="#EA600E"/>
</g>
<path d="M75.8097 38.9777C75.5419 38.7087 75.2234 38.4953 74.8725 38.3496C74.5215 38.2039 74.1451 38.1289 73.7649 38.1289C73.3847 38.1289 73.0083 38.2039 72.6573 38.3496C72.3064 38.4953 71.9878 38.7087 71.7201 38.9777L50.2642 60.3832L41.2499 51.3734C40.9719 51.1058 40.6437 50.8955 40.2842 50.7543C39.9246 50.6131 39.5406 50.5439 39.1542 50.5505C38.7677 50.5572 38.3864 50.6396 38.0319 50.7931C37.6775 50.9466 37.3568 51.1681 37.0883 51.4451C36.8198 51.7221 36.6086 52.049 36.4669 52.4073C36.3252 52.7655 36.2557 53.1481 36.2624 53.5331C36.2691 53.9181 36.3518 54.298 36.5059 54.6512C36.6599 55.0043 36.8823 55.3238 37.1603 55.5914L48.2194 66.6098C48.4872 66.8787 48.8057 67.0922 49.1566 67.2378C49.5076 67.3835 49.884 67.4585 50.2642 67.4585C50.6444 67.4585 51.0208 67.3835 51.3718 67.2378C51.7227 67.0922 52.0413 66.8787 52.309 66.6098L75.8097 43.1956C76.102 42.927 76.3353 42.6008 76.4949 42.2379C76.6544 41.8749 76.7368 41.4829 76.7368 41.0867C76.7368 40.6904 76.6544 40.2984 76.4949 39.9354C76.3353 39.5725 76.102 39.2464 75.8097 38.9777Z" fill="white"/>
<defs>
<filter id="filter0_d_1451_251" x="0" y="0" width="113" height="113" filterUnits="userSpaceOnUse" color-interpolation-filters="sRGB">
<feFlood flood-opacity="0" result="BackgroundImageFix"/>
<feColorMatrix in="SourceAlpha" type="matrix" values="0 0 0 0 0 0 0 0 0 0 0 0 0 0 0 0 0 0 127 0" result="hardAlpha"/>
<feOffset dy="4"/>
<feGaussianBlur stdDeviation="2"/>
<feComposite in2="hardAlpha" operator="out"/>
<feColorMatrix type="matrix" values="0 0 0 0 0 0 0 0 0 0 0 0 0 0 0 0 0 0 0.15 0"/>
<feBlend mode="normal" in2="BackgroundImageFix" result="effect1_dropShadow_1451_251"/>
<feBlend mode="normal" in="SourceGraphic" in2="effect1_dropShadow_1451_251" result="shape"/>
</filter>
</defs>
</svg>
