<svg width="73" height="65" viewBox="0 0 73 65" fill="none" xmlns="http://www.w3.org/2000/svg">
<rect width="72.5791" height="64.8814" rx="15" transform="matrix(-1 0 0 1 73.0002 0)" fill="white"/>
<path d="M35.7097 38.0425C35.6416 38.1177 35.5781 38.1971 35.5197 38.28C35.4597 38.3683 35.4118 38.4641 35.3772 38.565C35.3315 38.6548 35.2995 38.7508 35.2822 38.85C35.2744 38.9554 35.2744 39.0613 35.2822 39.1667C35.2768 39.3744 35.3202 39.5804 35.4088 39.7683C35.4799 39.9648 35.5934 40.1433 35.7411 40.291C35.8889 40.4388 36.0673 40.5522 36.2638 40.6233C36.4534 40.7071 36.6583 40.7504 36.8655 40.7504C37.0727 40.7504 37.2776 40.7071 37.4672 40.6233C37.6636 40.5522 37.8421 40.4388 37.9898 40.291C38.1376 40.1433 38.2511 39.9648 38.3222 39.7683C38.3925 39.5758 38.4247 39.3715 38.4172 39.1667C38.4184 38.9583 38.3784 38.7517 38.2996 38.5588C38.2208 38.3659 38.1047 38.1904 37.958 38.0425C37.8108 37.8941 37.6357 37.7763 37.4427 37.6959C37.2498 37.6155 37.0428 37.5742 36.8338 37.5742C36.6248 37.5742 36.4179 37.6155 36.2249 37.6959C36.032 37.7763 35.8569 37.8941 35.7097 38.0425ZM36.8338 17C33.7023 17 30.6411 17.9286 28.0373 19.6684C25.4335 21.4082 23.4041 23.881 22.2057 26.7742C21.0073 29.6673 20.6938 32.8509 21.3047 35.9223C21.9157 38.9936 23.4236 41.8149 25.638 44.0292C27.8523 46.2435 30.6735 47.7515 33.7449 48.3624C36.8163 48.9734 39.9998 48.6598 42.893 47.4614C45.7861 46.263 48.259 44.2336 49.9988 41.6299C51.7386 39.0261 52.6672 35.9649 52.6672 32.8333C52.6672 30.7541 52.2576 28.6952 51.4619 26.7742C50.6662 24.8532 49.4999 23.1077 48.0297 21.6375C46.5594 20.1672 44.814 19.0009 42.893 18.2052C40.972 17.4095 38.9131 17 36.8338 17ZM36.8338 45.5C34.3286 45.5 31.8796 44.7571 29.7966 43.3653C27.7136 41.9734 26.0901 39.9952 25.1314 37.6807C24.1726 35.3661 23.9218 32.8193 24.4105 30.3622C24.8993 27.9051 26.1057 25.6481 27.8771 23.8766C29.6486 22.1052 31.9056 20.8988 34.3627 20.4101C36.8198 19.9213 39.3666 20.1721 41.6812 21.1309C43.9957 22.0896 45.9739 23.7131 47.3658 25.7961C48.7576 27.8791 49.5005 30.3281 49.5005 32.8333C49.5005 36.1927 48.166 39.4146 45.7905 41.79C43.4151 44.1655 40.1932 45.5 36.8338 45.5ZM36.8338 24.9167C35.9995 24.9161 35.1798 25.1354 34.4571 25.5523C33.7344 25.9692 33.1343 26.5691 32.7172 27.2917C32.6026 27.4719 32.5257 27.6734 32.491 27.8841C32.4564 28.0948 32.4647 28.3104 32.5155 28.5178C32.5663 28.7252 32.6585 28.9202 32.7866 29.091C32.9148 29.2619 33.0761 29.405 33.261 29.5119C33.4459 29.6188 33.6505 29.6871 33.8624 29.7129C34.0744 29.7386 34.2894 29.7212 34.4945 29.6617C34.6996 29.6022 34.8905 29.5019 35.0558 29.3667C35.2211 29.2315 35.3573 29.0642 35.4563 28.875C35.5958 28.6334 35.7967 28.4329 36.0386 28.2939C36.2805 28.1549 36.5548 28.0822 36.8338 28.0833C37.2538 28.0833 37.6565 28.2501 37.9534 28.5471C38.2503 28.844 38.4172 29.2467 38.4172 29.6667C38.4172 30.0866 38.2503 30.4893 37.9534 30.7863C37.6565 31.0832 37.2538 31.25 36.8338 31.25C36.4139 31.25 36.0112 31.4168 35.7142 31.7137C35.4173 32.0107 35.2505 32.4134 35.2505 32.8333V34.4167C35.2505 34.8366 35.4173 35.2393 35.7142 35.5363C36.0112 35.8332 36.4139 36 36.8338 36C37.2538 36 37.6565 35.8332 37.9534 35.5363C38.2503 35.2393 38.4172 34.8366 38.4172 34.4167V34.1317C39.4643 33.7517 40.3446 33.0158 40.9042 32.0525C41.4638 31.0893 41.667 29.96 41.4784 28.8622C41.2897 27.7643 40.7212 26.7676 39.8722 26.0464C39.0232 25.3252 37.9478 24.9253 36.8338 24.9167Z" fill="black"/>
</svg>
